<svg width="1383" height="799" viewBox="0 0 1383 799" fill="none" xmlns="http://www.w3.org/2000/svg">
<g filter="url(#filter0_dd_147_2)">
<path d="M548.334 718.096L548.461 724.094L550.573 724.05L552.192 722.691L548.334 718.096ZM370.834 94.5956L369.951 88.6609L369.787 88.6853L369.626 88.7186L370.834 94.5956ZM677.835 66.0956L677.79 60.0957L677.693 60.0964L677.595 60.1003L677.835 66.0956ZM1011.83 94.5956L1010.75 100.497L1010.9 100.524L1011.04 100.543L1011.83 94.5956ZM1281.83 251.096L1287.27 248.555L1287.2 248.413L1287.13 248.275L1281.83 251.096ZM819.835 718.096L815.717 722.46L817.221 723.878L819.279 724.07L819.835 718.096ZM692 597.5L696.117 593.136L692.233 589.471L688.142 592.904L692 597.5ZM1265.49 542.153L1270.75 545.035L1265.49 542.153ZM1234.46 582.747L1230.29 578.429L1234.46 582.747ZM94.5286 268.52L88.8675 266.531L94.5286 268.52ZM548.208 712.097C352.822 716.212 205.051 654.839 136.17 561.044L126.498 568.147C198.618 666.352 351.045 728.253 548.461 724.094L548.208 712.097ZM136.17 561.044C102.397 515.054 81.2378 478.073 74.4115 435.103C67.5811 392.107 74.9803 342.29 100.19 270.508L88.8675 266.531C63.3884 339.082 55.2738 391.119 62.5601 436.986C69.8505 482.878 92.4388 521.768 126.498 568.147L136.17 561.044ZM115.669 238.738C140.842 200.473 168.105 173.633 207.197 152.518C246.501 131.288 298.031 115.696 372.043 100.473L369.626 88.7186C295.31 104.005 242.382 119.874 201.494 141.959C160.395 164.159 131.733 192.486 105.644 232.143L115.669 238.738ZM371.718 100.53C490.627 82.8308 557.649 76.9001 678.074 72.0908L677.595 60.1003C556.772 64.9256 489.319 70.8933 369.951 88.6609L371.718 100.53ZM677.879 72.0954C827.919 70.9812 896.766 79.5714 1010.75 100.497L1012.92 88.6942C898.266 67.6462 828.661 58.9754 677.79 60.0957L677.879 72.0954ZM1011.04 100.543C1092.46 111.376 1145.98 125.987 1185.5 149.563C1224.81 173.011 1250.84 205.671 1276.54 253.916L1287.13 248.275C1260.87 198.97 1233.53 164.242 1191.65 139.258C1149.98 114.402 1094.48 99.5392 1012.63 88.648L1011.04 100.543ZM1276.4 253.636C1302.26 308.958 1313.07 352.725 1310.2 396.179C1307.33 439.721 1290.68 483.658 1260.22 539.272L1270.75 545.035C1301.52 488.846 1319.13 443.088 1322.18 396.969C1325.23 350.761 1313.61 304.9 1287.27 248.555L1276.4 253.636ZM1230.29 578.429C1164.58 641.837 1108.21 679.343 1045.54 699.022C982.786 718.726 913.114 720.752 820.391 712.121L819.279 724.07C912.584 732.754 984.128 730.882 1049.13 710.471C1114.22 690.036 1172.15 651.21 1238.63 587.064L1230.29 578.429ZM823.952 713.731L696.117 593.136L687.883 601.864L815.717 722.46L823.952 713.731ZM688.142 592.904L544.477 713.5L552.192 722.691L695.858 602.096L688.142 592.904ZM1260.22 539.272C1252.31 553.733 1242.17 566.972 1230.29 578.429L1238.63 587.064C1251.36 574.775 1262.24 560.569 1270.75 545.035L1260.22 539.272ZM100.19 270.508C104.126 259.299 109.222 248.538 115.669 238.738L105.644 232.143C98.5811 242.879 93.0767 254.546 88.8675 266.531L100.19 270.508Z" fill="url(#paint0_linear_147_2)"/>
</g>
<g filter="url(#filter1_ddd_147_2)">
<path fill-rule="evenodd" clip-rule="evenodd" d="M688.707 426.478L810.393 541.358C857.344 582.387 887.048 597.477 949.206 602.955C1000.27 603.826 1034.4 593.928 1072.89 569.767C1111.38 545.606 1143.23 501.797 1157.82 459.051C1172.42 416.304 1171.58 367.446 1153.58 317.536C1128.4 261.962 1106.82 235.924 1047.68 203.634C997.506 183.504 968.595 179.436 915.233 188.766C874.123 198.343 852.941 209.271 818.887 238.15L745.366 306.916L779.605 338.246L851.002 271.869C878.9 249.62 895.486 241.343 929.3 233.636C973.324 229.312 996.046 232.443 1029.63 247.443C1066.32 267.536 1081.99 284.469 1104.48 320.988C1121.48 359.41 1123.56 383.899 1117.48 431.438C1104.26 475.163 1089.94 495.156 1055.37 524.896C1008.55 554.626 980.252 560.175 926.646 553.305C891.416 544.863 872.907 534.621 841.978 507.107L688.707 363.269V426.478Z" fill="white"/>
</g>
<g filter="url(#filter2_ddd_147_2)">
<path fill-rule="evenodd" clip-rule="evenodd" d="M689.902 364.503L553.798 236.644C541.319 224.921 527.543 214.53 512.05 207.241C470.414 187.655 435.261 181.236 398.733 187.519C355.686 194.924 329.805 199.376 279.363 242.526C228.921 285.675 210.171 355.976 213.34 404.899C216.509 453.823 228.131 480.324 252.69 516.763C283.443 557.349 306.681 572.792 354.63 592.396C403.933 607.148 431.561 607.334 480.866 594.776C503.103 588.325 516.852 582.251 538.236 568.1C543.501 564.616 548.396 560.594 552.974 556.246L617.93 494.549L583.598 464.137L523.894 518.977C516.883 525.418 509.273 531.236 500.906 535.779C456.631 559.816 425.859 561.653 371.532 549.026C326.274 530.337 307.144 515.055 283.589 479.21C258.372 431.382 253.765 402.375 267.215 345.662C286.677 297.463 303.281 277.401 342.746 253.368C374.628 237.244 393.734 233.056 429.896 233.27C459.674 235.83 477.739 240.529 503.305 255.182C511.318 259.775 518.579 265.554 525.292 271.898L689.902 427.461V364.503Z" fill="white"/>
</g>
<rect x="654.432" y="332" width="137.75" height="43.1255" transform="rotate(43.0357 654.432 332)" fill="white"/>
<defs>
<filter id="filter0_dd_147_2" x="0" y="0" width="1382.65" height="798.972" filterUnits="userSpaceOnUse" color-interpolation-filters="sRGB">
<feFlood flood-opacity="0" result="BackgroundImageFix"/>
<feColorMatrix in="SourceAlpha" type="matrix" values="0 0 0 0 0 0 0 0 0 0 0 0 0 0 0 0 0 0 127 0" result="hardAlpha"/>
<feOffset dy="10"/>
<feGaussianBlur stdDeviation="30"/>
<feComposite in2="hardAlpha" operator="out"/>
<feColorMatrix type="matrix" values="0 0 0 0 0.0156863 0 0 0 0 0.741176 0 0 0 0 1 0 0 0 1 0"/>
<feBlend mode="normal" in2="BackgroundImageFix" result="effect1_dropShadow_147_2"/>
<feColorMatrix in="SourceAlpha" type="matrix" values="0 0 0 0 0 0 0 0 0 0 0 0 0 0 0 0 0 0 127 0" result="hardAlpha"/>
<feOffset/>
<feGaussianBlur stdDeviation="30"/>
<feComposite in2="hardAlpha" operator="out"/>
<feColorMatrix type="matrix" values="0 0 0 0 0.0156863 0 0 0 0 0.741176 0 0 0 0 1 0 0 0 1 0"/>
<feBlend mode="normal" in2="effect1_dropShadow_147_2" result="effect2_dropShadow_147_2"/>
<feBlend mode="normal" in="SourceGraphic" in2="effect2_dropShadow_147_2" result="shape"/>
</filter>
<filter id="filter1_ddd_147_2" x="603.707" y="74" width="679.293" height="639.008" filterUnits="userSpaceOnUse" color-interpolation-filters="sRGB">
<feFlood flood-opacity="0" result="BackgroundImageFix"/>
<feColorMatrix in="SourceAlpha" type="matrix" values="0 0 0 0 0 0 0 0 0 0 0 0 0 0 0 0 0 0 127 0" result="hardAlpha"/>
<feOffset dx="15" dy="10"/>
<feGaussianBlur stdDeviation="50"/>
<feComposite in2="hardAlpha" operator="out"/>
<feColorMatrix type="matrix" values="0 0 0 0 0.878431 0 0 0 0 0.317647 0 0 0 0 0.698039 0 0 0 1 0"/>
<feBlend mode="normal" in2="BackgroundImageFix" result="effect1_dropShadow_147_2"/>
<feColorMatrix in="SourceAlpha" type="matrix" values="0 0 0 0 0 0 0 0 0 0 0 0 0 0 0 0 0 0 127 0" result="hardAlpha"/>
<feOffset dx="15" dy="-10"/>
<feGaussianBlur stdDeviation="50"/>
<feComposite in2="hardAlpha" operator="out"/>
<feColorMatrix type="matrix" values="0 0 0 0 1 0 0 0 0 0 0 0 0 0 0.678322 0 0 0 1 0"/>
<feBlend mode="normal" in2="effect1_dropShadow_147_2" result="effect2_dropShadow_147_2"/>
<feColorMatrix in="SourceAlpha" type="matrix" values="0 0 0 0 0 0 0 0 0 0 0 0 0 0 0 0 0 0 127 0" result="hardAlpha"/>
<feOffset dx="15"/>
<feGaussianBlur stdDeviation="50"/>
<feComposite in2="hardAlpha" operator="out"/>
<feColorMatrix type="matrix" values="0 0 0 0 1 0 0 0 0 0.00166678 0 0 0 0 0.678858 0 0 0 1 0"/>
<feBlend mode="normal" in2="effect2_dropShadow_147_2" result="effect3_dropShadow_147_2"/>
<feBlend mode="normal" in="SourceGraphic" in2="effect3_dropShadow_147_2" result="shape"/>
</filter>
<filter id="filter2_ddd_147_2" x="98" y="75.1953" width="676.902" height="638.655" filterUnits="userSpaceOnUse" color-interpolation-filters="sRGB">
<feFlood flood-opacity="0" result="BackgroundImageFix"/>
<feColorMatrix in="SourceAlpha" type="matrix" values="0 0 0 0 0 0 0 0 0 0 0 0 0 0 0 0 0 0 127 0" result="hardAlpha"/>
<feOffset dx="-20"/>
<feGaussianBlur stdDeviation="25"/>
<feComposite in2="hardAlpha" operator="out"/>
<feColorMatrix type="matrix" values="0 0 0 0 0.107915 0 0 0 0 0.030705 0 0 0 0 0.995833 0 0 0 1 0"/>
<feBlend mode="normal" in2="BackgroundImageFix" result="effect1_dropShadow_147_2"/>
<feColorMatrix in="SourceAlpha" type="matrix" values="0 0 0 0 0 0 0 0 0 0 0 0 0 0 0 0 0 0 127 0" result="hardAlpha"/>
<feOffset dx="-15" dy="-10"/>
<feGaussianBlur stdDeviation="50"/>
<feComposite in2="hardAlpha" operator="out"/>
<feColorMatrix type="matrix" values="0 0 0 0 0.107915 0 0 0 0 0.030705 0 0 0 0 0.995833 0 0 0 1 0"/>
<feBlend mode="normal" in2="effect1_dropShadow_147_2" result="effect2_dropShadow_147_2"/>
<feColorMatrix in="SourceAlpha" type="matrix" values="0 0 0 0 0 0 0 0 0 0 0 0 0 0 0 0 0 0 127 0" result="hardAlpha"/>
<feOffset dx="-15" dy="10"/>
<feGaussianBlur stdDeviation="50"/>
<feComposite in2="hardAlpha" operator="out"/>
<feColorMatrix type="matrix" values="0 0 0 0 0.107915 0 0 0 0 0.030705 0 0 0 0 0.995833 0 0 0 1 0"/>
<feBlend mode="normal" in2="effect2_dropShadow_147_2" result="effect3_dropShadow_147_2"/>
<feBlend mode="normal" in="SourceGraphic" in2="effect3_dropShadow_147_2" result="shape"/>
</filter>
<linearGradient id="paint0_linear_147_2" x1="1317" y1="394" x2="66" y2="394" gradientUnits="userSpaceOnUse">
<stop stop-color="#FF00AD"/>
<stop offset="1" stop-color="#1C08FE"/>
</linearGradient>
</defs>
</svg>
