<svg width="1203" height="205" viewBox="0 0 1203 205" fill="none" xmlns="http://www.w3.org/2000/svg">
<path d="M145.563 189H121.315V156.172H36.0737V189H11.8257V122.131C11.8257 112.37 13.5044 103.386 16.8618 95.1787C20.2192 86.9717 24.8823 79.9149 30.8511 74.0083C36.8198 68.1017 43.8766 63.5008 52.0215 60.2056C60.1663 56.9103 69.0573 55.2627 78.6943 55.2627H133.346C135.024 55.2627 136.61 55.5736 138.102 56.1953C139.594 56.8171 140.9 57.6875 142.019 58.8066C143.138 59.9258 144.009 61.2314 144.63 62.7236C145.252 64.2158 145.563 65.8013 145.563 67.48V189ZM36.0737 131.924H121.315V79.5107H78.6943C77.9482 79.5107 76.3628 79.6351 73.938 79.8838C71.5754 80.0703 68.8086 80.5988 65.6377 81.4692C62.529 82.3397 59.2337 83.6764 55.752 85.4795C52.2702 87.2826 49.0682 89.7695 46.146 92.9404C43.2238 96.1113 40.799 100.09 38.8716 104.878C37.0063 109.603 36.0737 115.354 36.0737 122.131V131.924Z" fill="url(#paint0_linear_148_13)"/>
<path d="M306.775 178.648C306.775 180.389 306.433 182.005 305.75 183.498C305.128 184.99 304.257 186.295 303.138 187.415C302.081 188.472 300.807 189.311 299.314 189.933C297.822 190.554 296.237 190.865 294.558 190.865C293.066 190.865 291.543 190.585 289.988 190.026C288.496 189.466 287.159 188.565 285.978 187.321L197.379 94.8057V189H173.131V65.6147C173.131 63.1278 173.815 60.8895 175.183 58.8999C176.613 56.8481 178.416 55.3249 180.592 54.3301C182.893 53.3975 185.255 53.1799 187.68 53.6772C190.105 54.1125 192.188 55.2316 193.929 57.0347L282.527 149.457V55.2627H306.775V178.648Z" fill="url(#paint1_linear_148_13)"/>
<path d="M460.563 189H436.315V156.172H351.074V189H326.826V122.131C326.826 112.37 328.504 103.386 331.862 95.1787C335.219 86.9717 339.882 79.9149 345.851 74.0083C351.82 68.1017 358.877 63.5008 367.021 60.2056C375.166 56.9103 384.057 55.2627 393.694 55.2627H448.346C450.024 55.2627 451.61 55.5736 453.102 56.1953C454.594 56.8171 455.9 57.6875 457.019 58.8066C458.138 59.9258 459.009 61.2314 459.63 62.7236C460.252 64.2158 460.563 65.8013 460.563 67.48V189ZM351.074 131.924H436.315V79.5107H393.694C392.948 79.5107 391.363 79.6351 388.938 79.8838C386.575 80.0703 383.809 80.5988 380.638 81.4692C377.529 82.3397 374.234 83.6764 370.752 85.4795C367.27 87.2826 364.068 89.7695 361.146 92.9404C358.224 96.1113 355.799 100.09 353.872 104.878C352.006 109.603 351.074 115.354 351.074 122.131V131.924Z" fill="url(#paint2_linear_148_13)"/>
<path d="M868.563 79.5107H815.124V189H790.876V79.5107H737.344V55.2627H868.563V79.5107Z" fill="url(#paint3_linear_148_13)"/>
<path d="M1029.87 100.028C1029.87 105.562 1029.15 110.505 1027.72 114.857C1026.36 119.209 1024.52 123.064 1022.22 126.421C1019.92 129.717 1017.22 132.546 1014.11 134.908C1011.06 137.271 1007.89 139.229 1004.59 140.784C1001.3 142.276 997.942 143.364 994.522 144.048C991.165 144.732 987.994 145.074 985.01 145.074H975.217V189H950.783V145.074H941.083C938.099 145.074 934.897 144.732 931.478 144.048C928.12 143.364 924.763 142.276 921.405 140.784C918.11 139.229 914.939 137.271 911.893 134.908C908.846 132.546 906.141 129.717 903.779 126.421C901.478 123.064 899.613 119.209 898.183 114.857C896.815 110.443 896.131 105.5 896.131 100.028V55.2627H920.379V100.028C920.379 103.199 920.877 106.059 921.872 108.608C922.866 111.095 924.265 113.24 926.068 115.043C927.871 116.847 930.048 118.245 932.597 119.24C935.208 120.173 938.099 120.639 941.27 120.639H985.01C987.31 120.266 989.673 119.8 992.098 119.24C994.522 118.618 996.73 117.593 998.719 116.163C1000.71 114.733 1002.36 112.743 1003.66 110.194C1004.97 107.645 1005.62 104.256 1005.62 100.028V55.2627H1029.87V100.028Z" fill="url(#paint4_linear_148_13)"/>
<path d="M1188.56 189H1164.31V156.172H1079.07V189H1054.83V122.131C1054.83 112.37 1056.5 103.386 1059.86 95.1787C1063.22 86.9717 1067.88 79.9149 1073.85 74.0083C1079.82 68.1017 1086.88 63.5008 1095.02 60.2056C1103.17 56.9103 1112.06 55.2627 1121.69 55.2627H1176.35C1178.02 55.2627 1179.61 55.5736 1181.1 56.1953C1182.59 56.8171 1183.9 57.6875 1185.02 58.8066C1186.14 59.9258 1187.01 61.2314 1187.63 62.7236C1188.25 64.2158 1188.56 65.8013 1188.56 67.48V189ZM1079.07 131.924H1164.31V79.5107H1121.69C1120.95 79.5107 1119.36 79.6351 1116.94 79.8838C1114.58 80.0703 1111.81 80.5988 1108.64 81.4692C1105.53 82.3397 1102.23 83.6764 1098.75 85.4795C1095.27 87.2826 1092.07 89.7695 1089.15 92.9404C1086.22 96.1113 1083.8 100.09 1081.87 104.878C1080.01 109.603 1079.07 115.354 1079.07 122.131V131.924Z" fill="url(#paint5_linear_148_13)"/>
<path d="M566.968 27.4876C572.494 34.7648 574.931 39.1943 578.39 47.5612L567.73 60.266C563.621 52.4227 561.211 47.658 558.085 43.2416C550.022 31.6014 545.309 34.8082 536.764 47.5612C524.305 66.6746 519.693 78.9535 517.474 84.4052C515.255 89.8569 505.171 113.579 502.245 136.241C499.685 149.13 499.793 156.067 500.469 169.782C502.543 184.145 505.635 186.604 515.622 164.141L528.642 176.642C525.371 182.199 531.189 178.201 519.137 192.261C507.086 206.321 497.609 210.651 490.57 194.175C488.043 184.837 486.843 179.147 487.016 164.191C488.19 144.368 489.89 133.583 494.631 114.897C499.919 93.3791 503.391 81.0666 512.398 57.7251C518.531 44.2772 522.695 36.5586 532.703 22.1516C543.301 10.0079 551.828 11.1481 566.968 27.4876Z" fill="url(#paint6_linear_148_13)"/>
<path d="M579.054 104.215C575.962 85.6099 573.851 75.6609 568.348 60.1472L579.054 46.1372C583.746 59.3572 585.958 66.8653 588.741 80.5254C599.704 128.402 603.205 146.971 614.233 166.114C627.585 184.507 633.96 182.938 643.804 163.821C651.7 138.82 655.793 124.545 662.158 98.3564C669.953 72.7393 671.185 69.5487 676.162 61.9098L685.849 74.9009L684.32 85.3448C680.695 94.2792 678.333 104.451 670.044 134.786C666.851 151.931 654.001 179.36 647.373 190.313C640.745 201.266 623.659 206.385 609.39 191.841C600.981 181.132 596.637 174.228 590.526 157.963C585.984 142.397 583.457 131.76 579.054 104.215Z" fill="url(#paint7_linear_148_13)"/>
<path d="M572.525 72.7987L563.891 52.6509C569.421 46.3593 572.002 44.0904 575.815 41.9602L584.861 63.7527C579.631 65.9632 576.978 68.0803 572.525 72.7987Z" fill="black" fill-opacity="0.14"/>
<path d="M657.64 169.837C658.051 170.248 647.36 190.396 647.36 190.396C643.523 184.685 641.581 181.77 637.903 173.538L647.36 152.156C649.827 158.735 657.229 169.426 657.64 169.837Z" fill="black" fill-opacity="0.14"/>
<path d="M523.12 144.714C518.776 157.669 515.751 164.735 509.095 176.918L516.124 194.772C520.347 192.033 527.219 182.817 531.264 174.086C536.786 163.137 541.736 149.394 545.815 133.724C551.036 115.966 554.063 106.367 560.095 91.5512C567.838 76.4095 572.51 69.6982 582.025 63.9475C591.562 59.094 597.152 62.3404 607.78 84.9059C614.546 99.5924 618.18 109.195 624.355 129.379C625.273 133.374 626.388 137.418 636.34 168.484C636.34 168.484 642.715 186.886 654.7 196.343C666.685 205.8 681.699 203.221 693.97 186.631C699.706 176.779 702.812 170.228 707.995 155.193C712.724 141.162 714.644 133.886 717.43 121.455C719.717 109.96 720.614 102.967 721 88.7397C720.785 73.7164 720.53 63.4592 712.823 54.4906C701.874 43.3156 693.536 45.8003 681.985 54.4906C675.197 61.0396 673.167 65.8445 670.058 73.2084L669.984 73.3837L684.28 84.6503L688.853 73.1281C695.343 61.9025 699.448 62.1347 704.663 71.339C707.452 77.4264 709.009 82.0833 707.995 91.8322C706.981 101.581 705.747 111.45 702.047 124.607C698.346 137.765 696.067 147.693 687.085 164.394C676.078 179.245 669.854 186.086 657.76 171.295C653.409 165.362 651.007 161.298 646.795 152.126C640.686 136.285 637.372 127.314 632.515 110.465C628.355 95.986 625.786 87.9736 619.51 74.4267C614.216 64.112 611.017 58.4132 602.935 49.1232C591.187 37.8506 584.689 35.894 573.355 44.267C567.507 49.1938 563.929 53.5602 557.035 63.9475C553.228 68.7611 549.595 76.1765 540.97 96.1519C535.548 108.283 530.897 122.194 523.12 144.714Z" fill="url(#paint8_linear_148_13)"/>
<defs>
<linearGradient id="paint0_linear_148_13" x1="485.5" y1="192" x2="714" y2="74" gradientUnits="userSpaceOnUse">
<stop stop-color="#E051B2"/>
<stop offset="1" stop-color="#1C08FE"/>
</linearGradient>
<linearGradient id="paint1_linear_148_13" x1="491" y1="210.5" x2="727" y2="60.5" gradientUnits="userSpaceOnUse">
<stop stop-color="#E051B2"/>
<stop offset="1" stop-color="#1C08FE"/>
</linearGradient>
<linearGradient id="paint2_linear_148_13" x1="475" y1="192" x2="723.5" y2="64.5" gradientUnits="userSpaceOnUse">
<stop stop-color="#E051B2"/>
<stop offset="1" stop-color="#1C08FE"/>
</linearGradient>
<linearGradient id="paint3_linear_148_13" x1="489" y1="189" x2="723" y2="57" gradientUnits="userSpaceOnUse">
<stop stop-color="#E051B2"/>
<stop offset="1" stop-color="#1C08FE"/>
</linearGradient>
<linearGradient id="paint4_linear_148_13" x1="491" y1="192" x2="729" y2="64.5" gradientUnits="userSpaceOnUse">
<stop stop-color="#E051B2"/>
<stop offset="0.991727" stop-color="#1C08FE"/>
</linearGradient>
<linearGradient id="paint5_linear_148_13" x1="493" y1="202.5" x2="729" y2="49" gradientUnits="userSpaceOnUse">
<stop stop-color="#E051B2"/>
<stop offset="1" stop-color="#1C08FE"/>
</linearGradient>
<linearGradient id="paint6_linear_148_13" x1="487" y1="205" x2="729" y2="59" gradientUnits="userSpaceOnUse">
<stop stop-color="#E051B2"/>
<stop offset="0.971875" stop-color="#1C08FE"/>
</linearGradient>
<linearGradient id="paint7_linear_148_13" x1="481.5" y1="201" x2="727" y2="57.0001" gradientUnits="userSpaceOnUse">
<stop stop-color="#E051B2"/>
<stop offset="1" stop-color="#1C08FE"/>
</linearGradient>
<linearGradient id="paint8_linear_148_13" x1="489" y1="202" x2="721" y2="55" gradientUnits="userSpaceOnUse">
<stop stop-color="#E051B2"/>
<stop offset="1" stop-color="#1C08FE"/>
</linearGradient>
</defs>
</svg>
