<svg xmlns="http://www.w3.org/2000/svg" xmlns:xlink="http://www.w3.org/1999/xlink" width="1440" zoomAndPan="magnify" viewBox="0 0 1440 809.999993" height="809.999993" preserveAspectRatio="xMidYMid meet" version="1.0"><defs><clipPath id="id1"><path d="M 739.125 439 L 743 439 L 743 442.316406 L 739.125 442.316406 Z M 739.125 439 " clip-rule="nonzero"/></clipPath><clipPath id="id2"><path d="M 682.390625 379 L 692 379 L 692 388 L 682.390625 388 Z M 682.390625 379 " clip-rule="nonzero"/></clipPath><clipPath id="id3"><path d="M 748 379.578125 L 757.363281 379.578125 L 757.363281 387.921875 L 748 387.921875 Z M 748 379.578125 " clip-rule="nonzero"/></clipPath><clipPath id="id4"><path d="M 682.390625 367.390625 L 757.390625 367.390625 L 757.390625 442.390625 L 682.390625 442.390625 Z M 682.390625 367.390625 " clip-rule="nonzero"/></clipPath></defs><path fill="rgb(100%, 60.389709%, 87.449646%)" d="M 696.597656 398.691406 C 695.742188 398.691406 695.039062 399.390625 695.039062 400.25 C 695.039062 401.105469 695.742188 401.808594 696.597656 401.808594 C 697.453125 401.808594 698.152344 401.105469 698.152344 400.25 C 698.152344 399.390625 697.453125 398.691406 696.597656 398.691406 " fill-opacity="1" fill-rule="nonzero"/><path fill="rgb(100%, 60.389709%, 87.449646%)" d="M 695.085938 383.488281 C 695.261719 384.195312 695.898438 384.667969 696.597656 384.667969 C 696.71875 384.667969 696.851562 384.652344 696.972656 384.625 C 697.808594 384.414062 698.316406 383.566406 698.109375 382.734375 L 694.992188 370.269531 C 694.78125 369.4375 693.9375 368.921875 693.101562 369.136719 C 692.269531 369.347656 691.761719 370.191406 691.972656 371.027344 L 695.085938 383.488281 " fill-opacity="1" fill-rule="nonzero"/><path fill="rgb(100%, 60.389709%, 87.449646%)" d="M 702.828125 398.691406 C 701.972656 398.691406 701.269531 399.390625 701.269531 400.25 C 701.269531 401.105469 701.972656 401.808594 702.828125 401.808594 C 703.6875 401.808594 704.386719 401.105469 704.386719 400.25 C 704.386719 399.390625 703.6875 398.691406 702.828125 398.691406 " fill-opacity="1" fill-rule="nonzero"/><g clip-path="url(#id1)"><path fill="rgb(100%, 60.389709%, 87.449646%)" d="M 741.328125 439.199219 C 740.46875 439.199219 739.769531 439.902344 739.769531 440.753906 C 739.769531 441.613281 740.46875 442.316406 741.328125 442.316406 C 742.199219 442.316406 742.882812 441.613281 742.882812 440.753906 C 742.882812 439.902344 742.199219 439.199219 741.328125 439.199219 " fill-opacity="1" fill-rule="nonzero"/></g><path fill="rgb(100%, 60.389709%, 87.449646%)" d="M 742.960938 384.625 C 743.085938 384.652344 743.214844 384.667969 743.335938 384.667969 C 744.035156 384.667969 744.667969 384.195312 744.847656 383.488281 L 747.960938 371.027344 C 748.175781 370.191406 747.664062 369.347656 746.828125 369.136719 C 745.992188 368.921875 745.148438 369.4375 744.941406 370.269531 L 741.828125 382.734375 C 741.613281 383.566406 742.125 384.414062 742.960938 384.625 " fill-opacity="1" fill-rule="nonzero"/><g clip-path="url(#id2)"><path fill="rgb(100%, 60.389709%, 87.449646%)" d="M 683.195312 382.800781 L 689.429688 387.472656 C 689.710938 387.683594 690.039062 387.785156 690.363281 387.785156 C 690.839844 387.785156 691.304688 387.570312 691.609375 387.164062 C 692.128906 386.476562 691.988281 385.496094 691.296875 384.980469 L 685.066406 380.308594 C 684.382812 379.789062 683.402344 379.929688 682.886719 380.621094 C 682.371094 381.308594 682.507812 382.285156 683.195312 382.800781 " fill-opacity="1" fill-rule="nonzero"/></g><g clip-path="url(#id3)"><path fill="rgb(100%, 60.389709%, 87.449646%)" d="M 749.570312 387.785156 C 749.894531 387.785156 750.222656 387.683594 750.503906 387.472656 L 756.734375 382.800781 C 757.425781 382.285156 757.566406 381.308594 757.046875 380.621094 C 756.535156 379.929688 755.550781 379.789062 754.863281 380.308594 L 748.636719 384.980469 C 747.945312 385.496094 747.804688 386.476562 748.320312 387.164062 C 748.628906 387.570312 749.09375 387.785156 749.570312 387.785156 " fill-opacity="1" fill-rule="nonzero"/></g><path fill="rgb(100%, 60.389709%, 87.449646%)" d="M 740.21875 398.691406 C 739.363281 398.691406 738.660156 399.390625 738.660156 400.25 C 738.660156 401.105469 739.363281 401.808594 740.21875 401.808594 C 741.078125 401.808594 741.777344 401.105469 741.777344 400.25 C 741.777344 399.390625 741.078125 398.691406 740.21875 398.691406 " fill-opacity="1" fill-rule="nonzero"/><path fill="rgb(100%, 60.389709%, 87.449646%)" d="M 746.453125 398.691406 C 745.597656 398.691406 744.894531 399.390625 744.894531 400.25 C 744.894531 401.105469 745.597656 401.808594 746.453125 401.808594 C 747.308594 401.808594 748.011719 401.105469 748.011719 400.25 C 748.011719 399.390625 747.308594 398.691406 746.453125 398.691406 " fill-opacity="1" fill-rule="nonzero"/><g clip-path="url(#id4)"><path fill="rgb(100%, 60.389709%, 87.449646%)" d="M 688.875 431.410156 L 689.109375 426.011719 L 696.511719 422.355469 L 707.222656 425.007812 C 709.710938 425.855469 712.390625 426.183594 714.984375 425.957031 L 735.308594 424.1875 C 736.574219 424.074219 737.738281 423.449219 738.507812 422.46875 C 739.207031 421.578125 739.496094 420.488281 739.320312 419.402344 C 739.257812 418.992188 739.132812 418.589844 738.960938 418.214844 C 738.273438 416.726562 736.671875 415.734375 734.949219 415.691406 L 729.316406 415.28125 L 729.316406 400.691406 C 729.316406 399.84375 730.207031 398.265625 731.152344 396.59375 C 731.597656 395.804688 732.082031 394.945312 732.558594 394.019531 L 746.453125 394.019531 C 748.171875 394.019531 749.570312 395.417969 749.570312 397.203125 L 751.058594 431.410156 Z M 728.4375 395.0625 C 727.296875 397.082031 726.375 398.710938 726.222656 400.25 L 724.640625 400.25 L 724.640625 391.546875 L 725.289062 390.898438 L 727.296875 388.886719 C 727.910156 388.277344 727.910156 387.292969 727.296875 386.683594 C 726.695312 386.078125 725.703125 386.078125 725.097656 386.683594 L 721.980469 389.800781 C 721.6875 390.09375 721.527344 390.488281 721.527344 390.898438 L 721.527344 400.25 L 718.40625 400.25 L 718.40625 390.898438 C 718.40625 390.488281 718.246094 390.09375 717.953125 389.800781 L 714.835938 386.683594 C 714.230469 386.078125 713.242188 386.078125 712.632812 386.683594 C 712.027344 387.292969 712.027344 388.277344 712.632812 388.886719 L 714.648438 390.898438 L 715.292969 391.546875 L 715.292969 400.25 L 713.710938 400.25 C 713.558594 398.707031 712.632812 397.035156 711.484375 394.96875 C 711.3125 394.660156 711.136719 394.339844 710.960938 394.019531 C 710.6875 393.515625 710.40625 392.996094 710.132812 392.457031 C 709.878906 391.953125 709.625 391.4375 709.386719 390.898438 C 708.332031 388.566406 707.503906 385.933594 707.503906 383.007812 C 707.503906 376.492188 713.046875 370.835938 719.613281 370.652344 C 723.03125 370.558594 726.222656 371.808594 728.65625 374.175781 C 731.089844 376.546875 732.429688 379.71875 732.429688 383.109375 C 732.429688 386.039062 731.628906 388.621094 730.609375 390.898438 C 730.367188 391.4375 730.117188 391.957031 729.859375 392.457031 C 729.582031 392.996094 729.304688 393.515625 729.023438 394.019531 C 728.828125 394.375 728.628906 394.722656 728.4375 395.0625 Z M 726.199219 415.058594 L 724.386719 414.925781 C 724.335938 414.347656 724.1875 413.6875 723.847656 412.984375 C 723.507812 412.277344 723.046875 411.355469 713.734375 409.304688 L 713.734375 403.363281 L 726.199219 403.363281 Z M 710.617188 401.808594 L 710.617188 408.644531 C 709.855469 408.488281 709.050781 408.328125 708.191406 408.160156 C 706.792969 406.9375 701.746094 403.132812 695.5625 405.894531 C 693.574219 406.785156 691.613281 407.683594 689.871094 408.503906 L 690.363281 397.132812 C 690.363281 395.417969 691.765625 394.019531 693.480469 394.019531 L 707.433594 394.019531 C 707.882812 394.898438 708.339844 395.71875 708.761719 396.476562 C 709.714844 398.203125 710.617188 399.835938 710.617188 400.691406 Z M 756.90625 431.863281 C 756.609375 431.566406 756.222656 431.410156 755.796875 431.410156 L 754.175781 431.410156 L 752.683594 397.132812 C 752.683594 393.695312 749.886719 390.898438 746.453125 390.898438 L 733.988281 390.898438 C 734.882812 388.617188 735.546875 386.023438 735.546875 383.109375 C 735.546875 378.867188 733.871094 374.902344 730.828125 371.941406 C 727.789062 368.984375 723.773438 367.414062 719.527344 367.539062 C 711.179688 367.765625 704.386719 374.710938 704.386719 383.007812 C 704.386719 385.929688 705.082031 388.566406 706.007812 390.898438 L 693.480469 390.898438 C 690.046875 390.898438 687.25 393.695312 687.25 397.0625 L 686.6875 410.015625 C 684.734375 410.949219 683.472656 411.570312 683.445312 411.585938 C 682.671875 411.964844 682.351562 412.898438 682.738281 413.671875 C 683.007812 414.21875 683.558594 414.535156 684.132812 414.535156 C 684.367188 414.535156 684.601562 414.488281 684.824219 414.378906 C 684.839844 414.371094 685.480469 414.054688 686.53125 413.542969 C 686.992188 413.324219 687.523438 413.066406 688.125 412.777344 C 688.617188 412.542969 689.152344 412.289062 689.71875 412.019531 C 691.773438 411.046875 694.277344 409.882812 696.839844 408.738281 C 701.976562 406.4375 706.183594 410.53125 706.351562 410.703125 C 706.574219 410.921875 706.90625 411.085938 707.214844 411.144531 C 708.429688 411.378906 709.558594 411.605469 710.617188 411.832031 C 711.15625 411.945312 711.679688 412.054688 712.175781 412.160156 C 712.71875 412.277344 713.242188 412.394531 713.734375 412.503906 C 717.898438 413.445312 720.378906 414.1875 721.148438 414.597656 C 721.316406 415.054688 721.304688 415.429688 721.277344 415.628906 C 721.09375 415.707031 720.851562 415.773438 720.554688 415.828125 C 718.902344 416.144531 715.597656 416.160156 712.175781 415.835938 C 711.769531 415.800781 711.363281 415.757812 710.953125 415.710938 C 710.84375 415.695312 710.730469 415.695312 710.617188 415.710938 C 709.914062 415.777344 709.316406 416.335938 709.226562 417.074219 C 709.128906 417.929688 709.738281 418.707031 710.59375 418.804688 C 712.058594 418.976562 714.472656 419.207031 716.863281 419.207031 C 718.191406 419.207031 719.507812 419.136719 720.65625 418.945312 C 721.789062 418.757812 722.761719 418.449219 723.402344 417.976562 L 728.949219 418.378906 L 734.792969 418.804688 C 735.382812 418.816406 735.945312 419.117188 736.128906 419.519531 C 736.183594 419.644531 736.226562 419.765625 736.246094 419.898438 C 736.289062 420.175781 736.164062 420.40625 736.050781 420.550781 C 735.816406 420.847656 735.4375 421.046875 735.035156 421.085938 L 714.714844 422.855469 C 712.546875 423.039062 710.308594 422.769531 708.097656 422.019531 L 696.707031 419.195312 C 696.351562 419.105469 695.972656 419.144531 695.640625 419.308594 L 689.265625 422.460938 L 687.671875 423.246094 L 686.078125 424.035156 L 684.132812 424.996094 L 683.445312 425.339844 C 682.671875 425.71875 682.351562 426.652344 682.738281 427.425781 C 683.007812 427.976562 683.558594 428.292969 684.136719 428.292969 C 684.367188 428.292969 684.601562 428.242188 684.824219 428.132812 L 685.925781 427.589844 L 685.757812 431.410156 L 684.132812 431.410156 C 683.710938 431.410156 683.324219 431.578125 683.027344 431.863281 C 682.746094 432.160156 682.574219 432.546875 682.574219 432.964844 L 682.574219 436.085938 C 682.574219 439.523438 685.363281 442.316406 688.808594 442.316406 L 735.09375 442.316406 C 735.96875 442.316406 736.652344 441.613281 736.652344 440.753906 C 736.652344 439.902344 735.96875 439.199219 735.09375 439.199219 L 688.808594 439.199219 C 687.09375 439.199219 685.691406 437.796875 685.691406 436.085938 L 685.691406 434.523438 L 754.242188 434.523438 L 754.242188 436.085938 C 754.242188 437.796875 752.839844 439.199219 751.125 439.199219 L 747.558594 439.199219 C 746.703125 439.199219 746 439.902344 746 440.753906 C 746 441.613281 746.703125 442.316406 747.558594 442.316406 L 751.125 442.316406 C 754.570312 442.316406 757.359375 439.523438 757.359375 436.085938 L 757.359375 432.964844 C 757.359375 432.546875 757.199219 432.160156 756.90625 431.863281 " fill-opacity="1" fill-rule="nonzero"/></g><path fill="rgb(100%, 60.389709%, 87.449646%)" d="M 733.992188 398.691406 C 733.132812 398.691406 732.429688 399.390625 732.429688 400.25 C 732.429688 401.105469 733.132812 401.808594 733.992188 401.808594 C 734.84375 401.808594 735.546875 401.105469 735.546875 400.25 C 735.546875 399.390625 734.84375 398.691406 733.992188 398.691406 " fill-opacity="1" fill-rule="nonzero"/><path fill="rgb(100%, 60.389709%, 87.449646%)" d="M 740.21875 404.921875 C 739.363281 404.921875 738.660156 405.625 738.660156 406.480469 C 738.660156 407.335938 739.363281 408.039062 740.21875 408.039062 C 741.078125 408.039062 741.777344 407.335938 741.777344 406.480469 C 741.777344 405.625 741.078125 404.921875 740.21875 404.921875 " fill-opacity="1" fill-rule="nonzero"/><path fill="rgb(100%, 60.389709%, 87.449646%)" d="M 733.992188 404.921875 C 733.132812 404.921875 732.429688 405.625 732.429688 406.480469 C 732.429688 407.335938 733.132812 408.039062 733.992188 408.039062 C 734.84375 408.039062 735.546875 407.335938 735.546875 406.480469 C 735.546875 405.625 734.84375 404.921875 733.992188 404.921875 " fill-opacity="1" fill-rule="nonzero"/></svg>