<svg xmlns="http://www.w3.org/2000/svg" xmlns:xlink="http://www.w3.org/1999/xlink" width="1440" zoomAndPan="magnify" viewBox="0 0 1440 809.999993" height="809.999993" preserveAspectRatio="xMidYMid meet" version="1.0"><defs><clipPath id="id1"><path d="M 834 601 L 852 601 L 852 619.636719 L 834 619.636719 Z M 834 601 " clip-rule="nonzero"/></clipPath><clipPath id="id2"><path d="M 881 262 L 934.902344 262 L 934.902344 307.964844 L 881 307.964844 Z M 881 262 " clip-rule="nonzero"/></clipPath></defs><path fill="rgb(100%, 60.389709%, 87.449646%)" d="M 586.710938 369.65625 C 581.8125 369.65625 577.789062 373.683594 577.789062 378.601562 C 577.789062 383.496094 581.8125 387.523438 586.710938 387.523438 C 591.628906 387.523438 595.632812 383.496094 595.632812 378.601562 C 595.632812 373.683594 591.628906 369.65625 586.710938 369.65625 " fill-opacity="1" fill-rule="nonzero"/><path fill="rgb(100%, 60.389709%, 87.449646%)" d="M 578.058594 282.546875 C 579.074219 286.613281 582.707031 289.3125 586.710938 289.3125 C 587.414062 289.3125 588.164062 289.226562 588.867188 289.0625 C 593.660156 287.859375 596.566406 283.003906 595.382812 278.230469 L 577.519531 206.808594 C 576.316406 202.035156 571.480469 199.089844 566.6875 200.3125 C 561.914062 201.515625 559.007812 206.351562 560.210938 211.144531 L 578.058594 282.546875 " fill-opacity="1" fill-rule="nonzero"/><path fill="rgb(100%, 60.389709%, 87.449646%)" d="M 622.421875 369.65625 C 617.523438 369.65625 613.5 373.683594 613.5 378.601562 C 613.5 383.496094 617.523438 387.523438 622.421875 387.523438 C 627.339844 387.523438 631.34375 383.496094 631.34375 378.601562 C 631.34375 373.683594 627.339844 369.65625 622.421875 369.65625 " fill-opacity="1" fill-rule="nonzero"/><g clip-path="url(#id1)"><path fill="rgb(100%, 60.389709%, 87.449646%)" d="M 843.019531 601.769531 C 838.101562 601.769531 834.097656 605.796875 834.097656 610.695312 C 834.097656 615.613281 838.101562 619.636719 843.019531 619.636719 C 848.019531 619.636719 851.941406 615.613281 851.941406 610.695312 C 851.941406 605.796875 848.019531 601.769531 843.019531 601.769531 " fill-opacity="1" fill-rule="nonzero"/></g><path fill="rgb(100%, 60.389709%, 87.449646%)" d="M 852.378906 289.0625 C 853.105469 289.226562 853.832031 289.3125 854.535156 289.3125 C 858.542969 289.3125 862.171875 286.613281 863.1875 282.546875 L 881.035156 211.144531 C 882.257812 206.351562 879.332031 201.515625 874.539062 200.3125 C 869.746094 199.089844 864.910156 202.035156 863.730469 206.808594 L 845.882812 278.230469 C 844.660156 283.003906 847.585938 287.859375 852.378906 289.0625 " fill-opacity="1" fill-rule="nonzero"/><path fill="rgb(100%, 60.389709%, 87.449646%)" d="M 509.933594 278.605469 L 545.644531 305.394531 C 547.265625 306.597656 549.132812 307.175781 551 307.175781 C 553.71875 307.175781 556.394531 305.933594 558.136719 303.609375 C 561.105469 299.664062 560.316406 294.0625 556.351562 291.09375 L 520.640625 264.328125 C 516.71875 261.359375 511.117188 262.167969 508.148438 266.113281 C 505.203125 270.054688 505.992188 275.65625 509.933594 278.605469 " fill-opacity="1" fill-rule="nonzero"/><g clip-path="url(#id2)"><path fill="rgb(100%, 60.389709%, 87.449646%)" d="M 890.246094 307.175781 C 892.117188 307.175781 893.984375 306.597656 895.601562 305.394531 L 931.3125 278.605469 C 935.253906 275.65625 936.066406 270.054688 933.097656 266.113281 C 930.152344 262.167969 924.527344 261.359375 920.585938 264.328125 L 884.894531 291.09375 C 880.953125 294.0625 880.140625 299.664062 883.089844 303.609375 C 884.851562 305.933594 887.53125 307.175781 890.246094 307.175781 " fill-opacity="1" fill-rule="nonzero"/></g><path fill="rgb(100%, 60.389709%, 87.449646%)" d="M 836.671875 369.65625 C 831.773438 369.65625 827.746094 373.683594 827.746094 378.601562 C 827.746094 383.496094 831.773438 387.523438 836.671875 387.523438 C 841.589844 387.523438 845.59375 383.496094 845.59375 378.601562 C 845.59375 373.683594 841.589844 369.65625 836.671875 369.65625 " fill-opacity="1" fill-rule="nonzero"/><path fill="rgb(100%, 60.389709%, 87.449646%)" d="M 872.382812 369.65625 C 867.484375 369.65625 863.460938 373.683594 863.460938 378.601562 C 863.460938 383.496094 867.484375 387.523438 872.382812 387.523438 C 877.300781 387.523438 881.324219 383.496094 881.324219 378.601562 C 881.324219 373.683594 877.300781 369.65625 872.382812 369.65625 " fill-opacity="1" fill-rule="nonzero"/><path fill="rgb(100%, 60.389709%, 87.449646%)" d="M 542.46875 557.136719 L 543.820312 526.21875 L 586.234375 505.261719 L 647.59375 520.449219 C 661.847656 525.328125 677.203125 527.195312 692.082031 525.90625 L 808.53125 515.761719 C 815.773438 515.117188 822.457031 511.527344 826.855469 505.902344 C 830.859375 500.800781 832.519531 494.554688 831.523438 488.347656 C 831.152344 485.984375 830.445312 483.679688 829.449219 481.542969 C 825.527344 473.015625 816.335938 467.328125 806.476562 467.082031 L 774.191406 464.734375 L 774.191406 381.132812 C 774.191406 376.277344 779.296875 367.230469 784.710938 357.640625 C 787.261719 353.117188 790.042969 348.199219 792.78125 342.890625 L 872.382812 342.890625 C 882.238281 342.890625 890.246094 350.898438 890.246094 361.128906 L 898.777344 557.136719 Z M 769.167969 348.863281 C 762.632812 360.445312 757.339844 369.78125 756.46875 378.601562 L 747.402344 378.601562 L 747.402344 328.714844 L 751.117188 325.023438 L 762.632812 313.484375 C 766.140625 310 766.140625 304.355469 762.632812 300.867188 C 759.167969 297.382812 753.503906 297.382812 750.015625 300.867188 L 732.171875 318.714844 C 730.492188 320.394531 729.554688 322.65625 729.554688 325.023438 L 729.554688 378.601562 L 711.691406 378.601562 L 711.691406 325.023438 C 711.691406 322.65625 710.757812 320.394531 709.074219 318.714844 L 691.230469 300.867188 C 687.746094 297.382812 682.101562 297.382812 678.59375 300.867188 C 675.128906 304.355469 675.128906 310 678.59375 313.484375 L 690.152344 325.023438 L 693.84375 328.714844 L 693.84375 378.601562 L 684.777344 378.601562 C 683.90625 369.761719 678.59375 360.171875 672.015625 348.324219 C 671.039062 346.5625 670.023438 344.734375 669.027344 342.890625 C 667.449219 340.003906 665.851562 337.035156 664.277344 333.945312 C 662.824219 331.0625 661.371094 328.09375 660 325.023438 C 653.960938 311.660156 649.210938 296.574219 649.210938 279.808594 C 649.210938 242.457031 680.980469 210.042969 718.601562 209.007812 C 738.1875 208.46875 756.46875 215.625 770.414062 229.195312 C 784.359375 242.769531 792.035156 260.945312 792.035156 280.386719 C 792.035156 297.175781 787.449219 311.96875 781.597656 325.023438 C 780.230469 328.09375 778.777344 331.082031 777.304688 333.945312 C 775.726562 337.035156 774.128906 340.003906 772.511719 342.890625 C 771.390625 344.921875 770.25 346.933594 769.167969 348.863281 Z M 756.324219 463.449219 L 745.949219 462.679688 C 745.660156 459.382812 744.808594 455.585938 742.859375 451.558594 C 740.90625 447.511719 738.273438 442.222656 684.921875 430.476562 L 684.921875 396.445312 L 756.324219 396.445312 Z M 667.054688 387.523438 L 667.054688 426.699219 C 662.679688 425.808594 658.070312 424.894531 653.152344 423.917969 C 645.144531 416.90625 616.21875 395.117188 580.796875 410.929688 C 569.382812 416.035156 558.15625 421.199219 548.175781 425.890625 L 551 360.734375 C 551 350.898438 559.03125 342.890625 568.863281 342.890625 L 648.816406 342.890625 C 651.390625 347.929688 654.003906 352.640625 656.410156 356.976562 C 661.890625 366.875 667.054688 376.214844 667.054688 381.132812 Z M 932.289062 559.730469 C 930.585938 558.027344 928.367188 557.136719 925.9375 557.136719 L 916.640625 557.136719 L 908.09375 360.734375 C 908.09375 341.042969 892.074219 325.023438 872.382812 325.023438 L 800.957031 325.023438 C 806.085938 311.949219 809.902344 297.070312 809.902344 280.386719 C 809.902344 256.070312 800.292969 233.347656 782.863281 216.394531 C 765.453125 199.441406 742.441406 190.457031 718.101562 191.160156 C 670.273438 192.46875 631.34375 232.246094 631.34375 279.808594 C 631.34375 296.53125 635.328125 311.660156 640.640625 325.023438 L 568.863281 325.023438 C 549.171875 325.023438 533.152344 341.042969 533.152344 360.339844 L 529.9375 434.542969 C 518.730469 439.898438 511.511719 443.464844 511.34375 443.550781 C 506.925781 445.726562 505.097656 451.082031 507.296875 455.5 C 508.855469 458.632812 512.007812 460.441406 515.289062 460.441406 C 516.636719 460.441406 517.984375 460.191406 519.25 459.546875 C 519.355469 459.507812 523.007812 457.699219 529.046875 454.773438 C 531.679688 453.507812 534.730469 452.035156 538.175781 450.375 C 540.996094 449.027344 544.046875 447.574219 547.304688 446.039062 C 559.070312 440.457031 573.429688 433.796875 588.101562 427.238281 C 617.546875 414.042969 641.636719 437.511719 642.613281 438.484375 C 643.878906 439.75 645.785156 440.683594 647.550781 441.015625 C 654.523438 442.367188 660.976562 443.671875 667.054688 444.960938 C 670.148438 445.601562 673.136719 446.226562 675.980469 446.847656 C 679.089844 447.511719 682.101562 448.175781 684.921875 448.820312 C 708.765625 454.214844 722.980469 458.46875 727.398438 460.8125 C 728.351562 463.429688 728.289062 465.566406 728.125 466.707031 C 727.085938 467.164062 725.695312 467.535156 723.996094 467.867188 C 714.535156 469.675781 695.589844 469.757812 675.980469 467.910156 C 673.65625 467.703125 671.332031 467.453125 668.984375 467.183594 C 668.34375 467.101562 667.699219 467.101562 667.054688 467.183594 C 663.03125 467.578125 659.585938 470.773438 659.089844 475.007812 C 658.527344 479.902344 662.015625 484.34375 666.910156 484.925781 C 675.316406 485.902344 689.132812 487.230469 702.828125 487.230469 C 710.445312 487.230469 718 486.8125 724.578125 485.714844 C 731.070312 484.636719 736.632812 482.871094 740.304688 480.171875 L 772.09375 482.476562 L 805.585938 484.90625 C 808.96875 484.988281 812.183594 486.710938 813.242188 489.011719 C 813.554688 489.71875 813.78125 490.425781 813.90625 491.171875 C 814.15625 492.769531 813.429688 494.097656 812.785156 494.925781 C 811.4375 496.628906 809.28125 497.769531 806.976562 497.976562 L 690.523438 508.125 C 678.117188 509.183594 665.273438 507.625 652.613281 503.332031 L 587.355469 487.144531 C 585.300781 486.648438 583.140625 486.855469 581.230469 487.808594 L 544.710938 505.863281 L 535.582031 510.367188 L 526.453125 514.890625 L 515.289062 520.386719 L 511.34375 522.359375 C 506.925781 524.539062 505.097656 529.890625 507.296875 534.3125 C 508.855469 537.464844 512.007812 539.292969 515.308594 539.292969 C 516.636719 539.292969 517.984375 538.980469 519.25 538.359375 L 525.558594 535.246094 L 524.605469 557.136719 L 515.289062 557.136719 C 512.878906 557.136719 510.660156 558.113281 508.957031 559.730469 C 507.339844 561.433594 506.363281 563.652344 506.363281 566.058594 L 506.363281 583.925781 C 506.363281 603.640625 522.34375 619.636719 542.078125 619.636719 L 807.308594 619.636719 C 812.308594 619.636719 816.230469 615.613281 816.230469 610.695312 C 816.230469 605.796875 812.308594 601.769531 807.308594 601.769531 L 542.078125 601.769531 C 532.261719 601.769531 524.230469 593.742188 524.230469 583.925781 L 524.230469 574.980469 L 917.015625 574.980469 L 917.015625 583.925781 C 917.015625 593.742188 908.984375 601.769531 899.171875 601.769531 L 878.730469 601.769531 C 873.8125 601.769531 869.789062 605.796875 869.789062 610.695312 C 869.789062 615.613281 873.8125 619.636719 878.730469 619.636719 L 899.171875 619.636719 C 918.90625 619.636719 934.882812 603.640625 934.882812 583.925781 L 934.882812 566.058594 C 934.882812 563.652344 933.96875 561.433594 932.289062 559.730469 " fill-opacity="1" fill-rule="nonzero"/><path fill="rgb(100%, 60.389709%, 87.449646%)" d="M 800.980469 369.65625 C 796.0625 369.65625 792.035156 373.683594 792.035156 378.601562 C 792.035156 383.496094 796.0625 387.523438 800.980469 387.523438 C 805.875 387.523438 809.902344 383.496094 809.902344 378.601562 C 809.902344 373.683594 805.875 369.65625 800.980469 369.65625 " fill-opacity="1" fill-rule="nonzero"/><path fill="rgb(100%, 60.389709%, 87.449646%)" d="M 836.671875 405.367188 C 831.773438 405.367188 827.746094 409.394531 827.746094 414.289062 C 827.746094 419.207031 831.773438 423.234375 836.671875 423.234375 C 841.589844 423.234375 845.59375 419.207031 845.59375 414.289062 C 845.59375 409.394531 841.589844 405.367188 836.671875 405.367188 " fill-opacity="1" fill-rule="nonzero"/><path fill="rgb(100%, 60.389709%, 87.449646%)" d="M 800.980469 405.367188 C 796.0625 405.367188 792.035156 409.394531 792.035156 414.289062 C 792.035156 419.207031 796.0625 423.234375 800.980469 423.234375 C 805.875 423.234375 809.902344 419.207031 809.902344 414.289062 C 809.902344 409.394531 805.875 405.367188 800.980469 405.367188 " fill-opacity="1" fill-rule="nonzero"/></svg>